<svg viewBox="0 0 2239 441" xmlns="http://www.w3.org/2000/svg" fill-rule="evenodd" clip-rule="evenodd" stroke-linejoin="round" stroke-miterlimit="2"><path d="M2080.735 247.246c-4.725 4.296-7.217 10.838-7.217 17.004 0 3.65.93 7.742 3.742 10.842 2.796 3.146 6.896 4.633 12.138 4.633 4.32-.033 8.287-1.096 10.425-1.983l3.37-17.75-12.008.012-.725 3.638 7.554.037-2.162 10.959c-1.313.591-3.413 1.05-5.609 1.025-8.27.025-11.85-4.709-11.85-11.846 0-5.046 2.096-10.304 5.575-13.546 3.105-2.9 7.096-4.504 11.521-4.504 3.363 0 5.896.608 7.771 1.592l1.538-3.838c-1.171-.762-4.238-1.817-8.759-1.817-5.966 0-11.266 2.05-15.304 5.542zm60.055 4.771c-3.888.042-7.184 2.075-9.51 5.896-.24-3.325-2.174-5.921-6.266-5.921-3.558 0-6.933 1.87-9.462 5.62h-.104l.683-4.95h-4.05a148.45 148.45 0 01-1.238 7.772l-3.55 18.908 4.496.012 2.45-13.525c1.042-5.733 5.263-10.175 8.571-10.175 3.396.013 4.013 2.346 4.013 4.605 0 1.066-.121 2.037-.35 3.283l-3.084 15.792 4.4-.017 2.53-13.771c1.095-6.025 5.062-9.892 8.329-9.88 2.987-.012 4.037 1.826 4.037 4.676 0 1.117-.17 2.437-.375 3.5l-2.8 15.487 4.317.013 2.879-15.783c.27-1.492.437-3.321.408-4.534.03-5.029-3.308-7.033-6.325-7.008zm29.487.225c-3.617 0-7.075 1.837-9.467 5.333l-.112.025 3.575-17.366h-4.625l-5.763 28.779c-.283 1.283-.512 2.883-.53 4.204.018 4.912 3.58 6.837 8.284 6.837 10.771.021 16.738-10.045 16.717-18.233 0-4.77-2.196-9.58-8.08-9.58zm-7.834 24.12c-2.795.022-4.258-1.337-4.283-3.874-.242-1.454-.054-2.504.15-3.434l.592-2.808c1.341-6.296 5.454-10.362 9.437-10.404 3.663.02 5.08 3.05 5.1 6.37 0 5.967-4.17 14.172-10.996 14.15zm45.384-18.628h-17.088l2.959-15.65h-4.563l-7.03 37.25h4.543l3.325-17.575 17.033.025-3.25 17.558 4.57-.008 7.047-37.246-4.563-.017-2.983 15.663zm-676.138-41.109l16.187-.012 21.88-115.85 38.041.02 2.617-13.533-91.784-.046-2.591 13.538 37.529.029-21.88 115.854zm105.25-79.55c1.725.008 3.041.42 4.337.42l3.104-15.72c-1.312.008-3.079-.442-4.804-.442-12.262-.02-22.296 9.613-28.408 22.28l-.446-.009c.858-6.991 1.746-13.554 2.608-20.104l-14.412-.008c-.863 8.741-2.208 20.996-4.425 33.204l-11.35 59.888 15.733.041 7.871-41.12c3.925-21.413 16.208-38.422 30.192-38.43zm77.879 79.571c-.454-10.513.858-27.113 3.904-43.296l9.663-48.496c-6.534-1.75-16.18-3.525-25.313-3.516-40.654-.059-64.287 34.05-64.287 66.412 0 17.933 10.041 31.021 26.658 31.021 13.096.02 26.22-6.95 36.296-26.18h.429c-1.317 9.605-2.196 18.305-2.242 24.043l14.892.012zm-43.683-10.996c-12.213-.008-15.734-10.054-15.709-20.542 0-26.225 19.725-51.15 43.759-51.116 5.658-.021 9.15.862 10.879 1.296l-5.246 28.437c-4.358 24.45-20.112 41.917-33.683 41.925zm126.741 11.05h15.713l10.07-54.225c1.322-5.22 1.75-10.937 1.73-15.287.02-19.275-12.192-25.805-23.567-25.805-13.116-.008-25.804 7.417-34.096 20.555h-.47l2.216-18.396-13.996.012c-1.304 7.842-2.62 16.6-4.345 27.067l-12.705 66.038 15.734.008 8.754-45.059c3.93-23.133 20.112-36.691 31.462-36.683 10.963.013 14.888 6.57 14.888 16.213 0 3.904-.88 7.833-1.308 11.779l-10.08 53.783zm95.026-28.862c.041-10.067-6.925-18.388-16.984-24.092-8.737-4.77-13.117-9.158-13.117-15.77-.025-7.83 7.005-13.93 16.613-13.93 7.013 0 12.642 2.192 16.167 4.392l4.379-12.246c-3.496-2.2-10.921-4.838-19.25-4.825-19.659-.013-33.646 12.633-33.663 28.825.017 9.646 5.696 17.925 16.638 23.641 9.6 5.646 13.07 10.046 13.07 17.05 0 8.292-6.962 15.263-17.929 15.263-7.441 0-15.3-3.054-19.637-5.688l-4.833 11.817c4.362 3.042 13.533 6.138 23.175 6.117 19.708.02 35.387-10.913 35.37-30.554zm78.291-66.388c-12.687-.012-25.358 7.425-33.208 19.638l-.48.02 2.205-17.466-14.4-.021c-1.333 9.162-3.104 21.83-5.242 33.183l-18.45 97.946h15.734l7.445-40.208.455-.017c3.475 2.234 10.075 4.371 20.133 4.371 30.575.008 54.183-30.975 54.183-63.78.025-17.07-8.246-33.653-28.375-33.666zm-22.087 84.192c-7.692.033-13.78-1.53-18.346-5.138l4.892-25.787c4.675-26.23 20.65-40.304 32.87-40.346 14.225-.042 18.134 11.242 18.155 21.417.083 24.408-17.025 49.779-37.571 49.854zm154.25-45.229c0-19.642-11.346-38.909-36.704-38.909-30.146-.025-51.575 28.392-51.596 58.98 0 21 13.12 38.475 36.683 38.475 31.058.008 51.6-29.692 51.617-58.546zm-49.721 45.845c-13.1-.008-21.82-10.933-21.82-26.204 0-21.45 13.553-45.925 33.212-45.904 16.612 0 21.858 15.317 21.841 26.233 0 21.43-14.437 45.875-33.233 45.875zm91.592-62.445l-.434-.009c.846-7.012 1.746-13.575 2.634-20.141l-13.984.029c-1.316 8.75-2.633 20.92-4.825 33.196l-11.4 59.912 15.734.025 7.9-41.108c3.941-21.442 16.179-38.442 30.162-38.442 1.771 0 3.067.4 4.367.408l3.058-15.708c-1.312.013-3.046-.454-4.775-.462-12.237-.009-22.329 9.612-28.437 22.3zm68.296-7.459l22.312.042 2.633-12.68-22.329-.008 4.417-22.283-16.654 5.254-3.48 17.03-13.12-.021-2.2 12.679h13.1l-9.171 46.787c-1.317 7.004-2.18 12.238-2.204 17.504 0 9.588 5.683 17.917 19.683 17.917 4.796 0 9.604-.458 12.238-1.746l.862-12.246c-2.18.421-4.375.434-7.425.4-6.13.013-8.754-3.045-8.737-8.729-.017-4.791.883-9.583 1.766-14.837l8.309-45.063zM608.475 190.442l-69.962-.054 29.1-151.909-31.033.042-34.425 178.317 101.733.029 4.587-26.425zM697.68 84.804c-44.25-.02-74.65 38.284-74.667 81.875 0 31.03 20.458 53.534 52.85 53.555 44.254.008 74.65-37.659 74.667-81.963.02-28.383-17.825-53.45-52.85-53.467zm-17.192 111.667c-15.833-.03-25.767-12.525-25.767-30.367 0-24.458 14.559-56.816 39.65-56.796 18.53-.02 24.45 15.834 24.43 29.705 0 25.77-15.196 57.458-38.313 57.458zM677.921 68.23c9.909.016 17.213-7.213 17.192-17.15 0-9.213-5.987-15.855-15.2-15.867-9.95-.046-17.192 7.295-17.192 17.183.025 9.262 6.58 15.812 15.2 15.833zm51.492.05c9.892.028 17.125-7.192 17.125-17.142.025-9.238-5.917-15.855-15.13-15.88-9.257.013-17.19 7.309-17.19 17.196 0 9.25 6.578 15.834 15.195 15.825zm48.183 101.083c-1.954 9.9-2.675 16.541-2.654 23.829-.02 15.2 9.213 27.07 30.33 27.07 7.283 0 15.916-1.324 19.87-3.295l3.267-23.746c-3.25.62-7.22.612-10.55.587-8.596.025-11.863-4.587-11.842-11.862 0-5.296 1.271-11.867 2.613-17.813l9.95-52.195 29.037-.021 4.646-23.734h-28.396l5.984-33.037-31.771 8.55-5.246 24.446h-17.192l-4.629 23.766 17.854.009-11.27 57.446zm109.051 27.841c-11.246-.008-24.475-4.691-31.03-8.641l-7.979 21.841c7.28 5.284 21.138 9.905 36.338 9.925 31.091-.02 54.825-15.833 54.841-44.241 0-16.542-12.479-27.08-27.058-35.075-11.23-5.217-16.496-10.542-16.496-17.805 0-8.591 7.896-15.225 19.842-15.225 10.533.021 19.15 3.342 23.758 5.971l7.934-22.454c-5.305-3.28-16.492-6.583-30.392-6.596-30.417-.033-52.213 17.784-52.213 42.904 0 14.521 10.592 25.78 25.809 33.696 12.504 6.65 16.47 11.888 16.47 19.854-.02 8.55-7.283 15.838-19.824 15.846zm73.933-28.383c0 30.404 19.842 51.53 52.25 51.57 16.454.01 29.675-3.957 37.654-7.907l-1.337-23.126c-6.642 2.613-15.834 5.938-27.78 5.938-17.17 0-28.4-11.263-28.383-30.425 0-27.063 19.15-54.13 48.904-54.108 8.617 0 14.559 1.283 19.784 3.958l8-24.454c-5.304-1.971-15.2-4.684-27.125-4.684-47.567-.016-81.95 37.667-81.967 83.238zm153.925-13.15c4.6-27.108 22.488-44.88 36.967-44.88 11.946-.028 16.537 7.217 16.537 17.192 0 6.592-1.362 11.867-1.975 17.167l-13.904 71.967 31.05.033 13.904-74.68c1.342-6.557 2.654-15.824 2.654-22.453.021-23.742-14.541-34.992-32.375-34.992-18.483-.008-32.345 9.213-43.587 22.442l14.537-78.625-30.329.012-35.779 188.209 30.413.025 11.887-61.417zm159.138 64.838c15.879 0 33.091-3.959 45.596-10.571l-2.596-22.425c-9.254 4.587-21.138 8.545-35.675 8.545-12.546 0-21.796-4.641-26.467-13.233-3.25-5.308-3.975-13.879-3.95-18.475 50.263 1.325 85.263-9.225 85.263-42.912.02-21.15-16.496-36.33-42.242-36.363-44.259-.012-72.675 42.925-72.717 81.875 0 31.754 17.154 53.546 52.788 53.559zm15.92-112.25c9.892-.017 16.496 5.295 16.496 13.212 0 15.842-20.466 20.47-52.195 19.758 3.966-15.829 16.575-32.987 35.7-32.97zm149.376-22.489c-1.988 0-4.684-.612-7.3-.62-17.171-.008-31.03 13.2-40.267 30.358l-.633.013c1.275-9.25 1.975-18.517 2.612-27.075l-26.425-.042c-1.358 11.242-3.35 31.05-6.6 49.571l-15.237 79.25 31.033-.033 9.275-51.484c5.325-27.712 19.18-50.179 41.662-50.17 1.971 0 3.946.008 5.917.633l5.963-30.4z" fill="#b3b4b3" fill-rule="nonzero"/><path d="M403.054 363.225l-97.037-68.77-18.742 20.412.063.117.125.083 93.029 69.67.204.042 22.358-21.554zM297.492 176.68c.642-.788 1.092-1.467 1.692-2.3.041-.063 0-.83.058-.897.042-.07.412-.112.475-.187.287-.43.63-1.513.904-1.954-13.654 10.258-39.896 9.083-39.896 9.083l-46.95-.262 13.904-54.417-50.387-.117-19.809 19.438-.02.366 50.279.238-14.854 54.667 44.629-.905s2.437.059 6.408-.233c12.092-.908 38.6-4.079 53.567-22.52zm-116.167 70.954l-29.783 106.104 145.533.337-4.883-20.1h-117.78l22.059-86.32h-.275l-14.87-.021z" fill="#ffd100" fill-rule="nonzero"/><path d="M79.892 58.1l216.042.842c34.879 0 64.775 18.637 67.8 62.75 1.07 15.637-.042 33.804-7.467 55.879-1.296 3.825-3.104 7.937-4.87 11.742-2.963 6.433-6.518 13.383-11.026 18.866l.617-.37c50.341-31.755 44.587-102.488 44.587-102.488-2.225-44.875-40.204-65.392-76.191-66.838l-208.355-.32L112.342 0 16.367 64.933 0 82.875l.104.063 90.954-61.246L79.892 58.1z" fill="#ffd100" fill-rule="nonzero"/><path d="M287.338 314.921l-.063-.054 4.792 19.404 4.833 19.6h-.104l-144.967-.25 29.58-105.9 14.866.017h.271l57.692.104c44.454-1.842 70.279-20.404 86.958-40.546a.86.86 0 01.183-.217c4.425-5.408 8.063-11.537 11-17.85 1.771-3.812 3.271-7.67 4.571-11.508 7.438-22.08 10.034-40.813 8.963-56.433-3.004-44.121-35.184-63.505-70.071-63.505L81.004 57.68l11-37L.43 82.56l-.233.166-.175.13-.021.02.104.063.063.05 95.979 63.779-.067-.221-.041-.096-12.363-39.083 26.48.041 166.416.275c40.663-.116 30.796 45.338 30.796 45.338a62.96 62.96 0 01-2.45 8.18c-.142.424-.308.807-.47 1.207a2.264 2.264 0 01-.176.455 47.403 47.403 0 01-4.225 8.254c-.042.062-.083.116-.104.183-.308.45-.583.896-.888 1.325-.054.075-.108.133-.162.208a.835.835 0 01-.146.192c-.57.83-1.187 1.642-1.83 2.421-14.966 18.458-40.92 22.587-52.99 23.492-4.055.304-6.56.241-6.56.241l-43.066-.02 13.821-54.013-50.62-.08h-.038l-63.388 256.86 207.634.35-14.125 38.354 93.112-55.85-.079-.08-.042-.046L287.45 315l-.112-.079z" fill="#d5025e" fill-rule="nonzero"/></svg>